# Blender v2.90.0 OBJ File: 'InjectionNeedle.blend'
# www.blender.org
mtllib InjectionNeedle.mtl
o 3d-model
v 0.359440 0.425291 -0.003882
v 0.357720 0.556469 -0.005086
v 0.330510 0.684076 -0.006255
v 0.335460 0.299454 -0.002726
v 0.279630 0.799434 -0.007312
v 0.287520 0.187566 -0.001697
v 0.260110 0.542779 -0.004956
v 0.208530 0.894612 -0.008182
v 0.239960 0.637127 -0.005821
v 0.202320 0.722406 -0.006601
v 0.122090 0.963191 -0.008808
v 0.149770 0.792794 -0.007245
v 0.085850 0.843473 -0.007708
v 0.026150 1.000430 -0.009146
v 0.014950 0.871013 -0.007957
v -0.072700 1.003910 -0.009173
v -0.058140 0.873553 -0.007978
v -0.128420 0.850943 -0.007767
v -0.167740 0.973251 -0.008888
v -0.191090 0.804624 -0.007339
v -0.252500 0.910642 -0.008310
v -0.241890 0.737805 -0.006724
v -0.277340 0.655077 -0.005964
v -0.321220 0.820284 -0.007478
v -0.295060 0.562069 -0.005109
v -0.293810 0.465071 -0.004219
v -0.313330 0.208416 -0.001864
v -0.273670 0.370723 -0.003355
v -0.242230 0.113238 -0.000993
v -0.236070 0.285444 -0.002574
v -0.183470 0.215056 -0.001930
v -0.155790 0.044669 -0.000368
v -0.119560 0.164377 -0.001468
v -0.059860 0.007420 -0.000030
v -0.048660 0.136837 -0.001218
v 0.024440 0.134297 -0.001198
v 0.039000 0.003950 -0.000002
v 0.094720 0.156967 -0.001408
v 0.134030 0.034599 -0.000287
v 0.157380 0.203236 -0.001836
v 0.208180 0.270045 -0.002451
v 0.218800 0.097208 -0.000866
v 0.243630 0.352773 -0.003211
v 0.261360 0.445781 -0.004066
v -0.369170 0.708396 -0.006449
v -0.364250 0.323784 -0.002920
v -0.393140 0.582558 -0.005293
v -0.391460 0.451381 -0.004090
v 0.081400 0.299414 -1.000001
v 0.109440 0.425251 -1.000002
v -0.542480 0.465041 -0.999975
v -0.540570 0.562039 -0.999975
v -0.303810 1.003870 -0.999985
v -0.399850 0.973220 -0.999981
v -0.519840 0.655097 -0.999976
v -0.481660 0.737775 -0.999977
v -0.486650 0.910612 -0.999977
v -0.046860 0.270004 -0.999996
v -0.099840 0.203196 -0.999993
v -0.164030 0.156927 -0.999991
v 0.012020 0.445741 -0.999998
v -0.008710 0.352743 -0.999997
v -0.418170 0.044629 -0.999980
v -0.323440 0.007390 -0.999984
v -0.224700 0.003910 -0.999988
v -0.378030 0.164347 -0.999982
v -0.440310 0.215076 -0.999979
v 0.029790 0.187536 -0.999999
v -0.041860 0.097178 -0.999996
v -0.128660 0.034569 -0.999992
v -0.088200 0.792754 -0.999994
v -0.150480 0.843433 -0.999991
v -0.026160 0.894582 -0.999996
v -0.110380 0.963151 -0.999993
v 0.088980 0.684036 -1.000001
v 0.041850 0.799394 -0.999999
v -0.308020 0.136807 -0.999985
v -0.235010 0.134267 -0.999988
v -0.205070 1.000400 -0.999989
v -0.003090 0.637097 -0.999998
v 0.013930 0.542739 -0.999998
v -0.640560 0.451351 -0.999971
v -0.617530 0.323743 -0.999972
v -0.570360 0.208386 -0.999974
v -0.502390 0.113208 -0.999976
v -0.293500 0.873522 -0.999985
v -0.364520 0.850903 -0.999982
v -0.525420 0.370682 -0.999976
v -0.220490 0.870982 -0.999988
v 0.112050 0.556439 -1.000002
v -0.490590 0.285414 -0.999977
v -0.637980 0.582528 -0.999971
v -0.428710 0.804584 -0.999980
v -0.037950 0.722375 -0.999996
v -0.609910 0.708366 -0.999972
v -0.558340 0.820253 -0.999974
vt 0.000000 0.000000
vt 0.000000 0.000000
vt 0.000000 0.000000
vt 0.000000 0.000000
vt 0.000000 0.000000
vt 0.000000 0.000000
vt 0.000000 0.000000
vt 0.000000 0.000000
vt 0.000000 0.000000
vt 0.000000 0.000000
vt 0.000000 0.000000
vt 0.000000 0.000000
vt 0.000000 0.000000
vt 0.000000 0.000000
vt 0.000000 0.000000
vt 0.000000 0.000000
vt 0.000000 0.000000
vt 0.000000 0.000000
vt 0.000000 0.000000
vt 0.000000 0.000000
vt 0.000000 0.000000
vt 0.000000 0.000000
vt 0.000000 0.000000
vt 0.000000 0.000000
vt 0.000000 0.000000
vt 0.000000 0.000000
vt 0.000000 0.000000
vt 0.000000 0.000000
vt 0.000000 0.000000
vt 0.000000 0.000000
vt 0.000000 0.000000
vt 0.000000 0.000000
vt 0.000000 0.000000
vt 0.000000 0.000000
vt 0.000000 0.000000
vt 0.000000 0.000000
vt 0.000000 0.000000
vt 0.000000 0.000000
vt 0.000000 0.000000
vt 0.000000 0.000000
vt 0.000000 0.000000
vt 0.000000 0.000000
vt 0.000000 0.000000
vt 0.000000 0.000000
vt 0.000000 0.000000
vt 0.000000 0.000000
vt 0.000000 0.000000
vt 0.000000 0.000000
vt 0.000000 0.000000
vt 0.000000 0.000000
vt 0.000000 0.000000
vt 0.000000 0.000000
vt 0.000000 0.000000
vt 0.000000 0.000000
vt 0.000000 0.000000
vt 0.000000 0.000000
vt 0.000000 0.000000
vt 0.000000 0.000000
vt 0.000000 0.000000
vt 0.000000 0.000000
vt 0.000000 0.000000
vt 0.000000 0.000000
vt 0.000000 0.000000
vt 0.000000 0.000000
vt 0.000000 0.000000
vt 0.000000 0.000000
vt 0.000000 0.000000
vt 0.000000 0.000000
vt 0.000000 0.000000
vt 0.000000 0.000000
vt 0.000000 0.000000
vt 0.000000 0.000000
vt 0.000000 0.000000
vt 0.000000 0.000000
vt 0.000000 0.000000
vt 0.000000 0.000000
vt 0.000000 0.000000
vt 0.000000 0.000000
vt 0.000000 0.000000
vt 0.000000 0.000000
vt 0.000000 0.000000
vt 0.000000 0.000000
vt 0.000000 0.000000
vt 0.000000 0.000000
vt 0.000000 0.000000
vt 0.000000 0.000000
vt 0.000000 0.000000
vt 0.000000 0.000000
vt 0.000000 0.000000
vt 0.000000 0.000000
vt 0.000000 0.000000
vt 0.000000 0.000000
vt 0.000000 0.000000
vt 0.000000 0.000000
vt 0.000000 0.000000
vt 0.000000 0.000000
vn 0.0000 0.0092 1.0000
vn -0.0003 0.0093 1.0000
vn -0.0005 0.0093 1.0000
vn 0.9233 -0.3037 -0.2351
vn 0.9648 -0.1032 -0.2421
vn 0.9650 -0.1007 -0.2421
vn 0.9261 -0.2946 -0.2357
vn 0.9662 0.0904 -0.2413
vn 0.9660 -0.0998 -0.2385
vn 0.9658 -0.1023 -0.2384
vn 0.9659 0.0937 -0.2412
vn -0.1125 0.9933 0.0263
vn -0.1615 0.9862 0.0377
vn -0.4684 0.8767 0.1099
vn -0.4324 0.8960 0.1014
vn 0.9284 -0.2946 -0.2266
vn 0.8441 -0.4958 -0.2040
vn 0.8356 -0.5110 -0.2015
vn 0.9257 -0.3033 -0.2259
vn -0.6768 0.7185 0.1600
vn -0.6967 0.6982 0.1648
vn -0.8419 0.4950 0.2150
vn -0.8327 0.5111 0.2128
vn -0.6737 0.7184 0.1735
vn -0.6952 0.6962 0.1789
vn -0.4690 0.8748 0.1213
vn -0.4295 0.8962 0.1111
vn -0.9649 0.1033 0.2415
vn -0.9236 0.3037 0.2338
vn -0.9264 0.2947 0.2344
vn -0.9651 0.1007 0.2416
vn -0.5145 -0.8468 0.1348
vn -0.2282 -0.9718 0.0601
vn -0.1754 -0.9834 0.0462
vn -0.4782 -0.8692 0.1256
vn 0.1093 -0.9936 -0.0287
vn 0.1644 -0.9855 -0.0432
vn 0.7011 0.6899 -0.1803
vn 0.4784 0.8694 -0.1237
vn 0.5145 0.8471 -0.1330
vn 0.7204 0.6684 -0.1851
vn 0.8323 -0.5110 -0.2147
vn 0.8415 -0.4948 -0.2169
vn 0.6951 -0.6957 -0.1810
vn 0.6734 -0.7182 -0.1755
vn 0.4692 -0.8745 -0.1230
vn 0.4292 -0.8962 -0.1126
vn -0.7038 -0.6901 0.1688
vn -0.7220 -0.6699 0.1734
vn -0.5141 -0.8489 0.1227
vn -0.4808 -0.8693 0.1147
vn 0.5141 0.8492 -0.1209
vn 0.7221 0.6703 -0.1712
vn 0.7041 0.6902 -0.1668
vn 0.4812 0.8693 -0.1130
vn 0.9301 0.2894 -0.2261
vn 0.8478 0.4899 -0.2032
vn 0.8558 0.4749 -0.2053
vn 0.9327 0.2803 -0.2269
vn 0.1756 0.9834 -0.0456
vn 0.2277 0.9719 -0.0591
vn -0.1641 0.9855 0.0425
vn -0.1099 0.9935 0.0285
vn 0.2256 0.9728 -0.0528
vn 0.1786 0.9830 -0.0418
vn -0.9298 -0.2894 0.2274
vn -0.9665 -0.0928 0.2391
vn -0.9668 -0.0894 0.2393
vn -0.9324 -0.2802 0.2281
vn -0.9662 -0.0902 0.2416
vn -0.9304 -0.2803 0.2361
vn -0.9276 -0.2898 0.2356
vn -0.9659 -0.0936 0.2416
vn -0.8529 -0.4737 0.2193
vn -0.8444 -0.4897 0.2174
vn -0.7203 -0.6679 0.1873
vn -0.7008 -0.6897 0.1824
vn 0.1617 -0.9861 -0.0384
vn 0.1121 -0.9933 -0.0266
vn 0.4318 -0.8961 -0.1028
vn 0.4684 -0.8764 -0.1116
vn 0.9307 0.2804 -0.2349
vn 0.9280 0.2898 -0.2344
vn -0.1781 -0.9831 0.0424
vn -0.2259 -0.9727 0.0537
vn 0.9666 0.0928 -0.2387
vn 0.9669 0.0895 -0.2389
vn 0.8533 0.4739 -0.2175
vn 0.8448 0.4898 -0.2155
vn -0.9661 0.0999 0.2379
vn -0.9659 0.1024 0.2378
vn 0.6968 -0.6976 -0.1670
vn 0.6767 -0.7182 -0.1621
vn -0.8474 -0.4897 0.2051
vn -0.8555 -0.4746 0.2072
vn -0.9287 0.2946 0.2253
vn -0.9262 0.3033 0.2241
vn -0.8359 0.5113 0.1998
vn -0.8444 0.4961 0.2021
usemtl wire_134110008
s 1
f 1/1/1 2/2/1 3/3/1 4/4/1
f 4/4/1 3/3/1 5/5/1 6/6/1
f 7/7/1 6/6/1 5/5/1 8/8/1
f 9/9/1 7/7/1 8/8/1 10/10/1
f 10/10/1 8/8/1 11/11/1 12/12/1
f 13/13/1 12/12/1 11/11/1 14/14/1
f 15/15/1 13/13/1 14/14/1 16/16/1
f 17/17/1 15/15/1 16/16/1 18/18/1
f 18/18/1 16/16/1 19/19/1 20/20/1
f 20/20/1 19/19/1 21/21/1 22/22/1
f 23/23/1 22/22/1 21/21/1 24/24/1
f 25/25/1 23/23/1 24/24/1 26/26/1
f 26/26/1 24/24/1 27/27/1 28/28/1
f 28/28/1 27/27/1 29/29/1 30/30/1
f 31/31/1 30/30/1 29/29/1 32/32/1
f 33/33/1 31/31/1 32/32/1 34/34/1
f 35/35/1 33/33/1 34/34/1 36/36/1
f 36/36/1 34/34/1 37/37/1 38/38/1
f 38/38/1 37/37/1 39/39/1 40/40/1
f 41/41/2 40/40/1 39/39/1 42/42/1
f 43/43/3 41/41/2 42/42/1 44/44/1
f 44/44/1 42/42/1 6/6/1 7/7/1
f 27/27/1 24/24/1 45/45/1 46/46/1
f 46/46/1 45/45/1 47/47/1 48/48/1
f 49/49/4 50/50/5 1/1/6 4/4/7
f 51/51/8 52/52/9 25/25/10 26/26/11
f 16/16/12 53/53/13 54/54/14 19/19/15
f 55/55/16 56/56/17 22/22/18 23/23/19
f 21/21/20 19/19/15 54/54/14 57/57/21
f 41/41/22 58/58/23 59/59/24 40/40/25
f 38/38/26 40/40/25 59/59/24 60/60/27
f 61/61/28 62/62/29 43/43/30 44/44/31
f 63/63/32 64/64/33 34/34/34 32/32/35
f 65/65/36 37/37/37 34/34/34 64/64/33
f 31/31/38 33/33/39 66/66/40 67/67/41
f 62/62/29 58/58/23 41/41/22 43/43/30
f 52/52/9 55/55/16 23/23/19 25/25/10
f 68/68/42 6/6/43 42/42/44 69/69/45
f 69/69/45 42/42/44 39/39/46 70/70/47
f 71/71/48 12/12/49 13/13/50 72/72/51
f 11/11/52 8/8/53 73/73/54 74/74/55
f 75/75/56 76/76/57 5/5/58 3/3/59
f 33/33/39 35/35/60 77/77/61 66/66/40
f 76/76/57 73/73/54 8/8/53 5/5/58
f 36/36/62 78/78/63 77/77/61 35/35/60
f 14/14/64 79/79/65 53/53/13 16/16/12
f 80/80/66 81/81/67 7/7/68 9/9/69
f 11/11/52 74/74/55 79/79/65 14/14/64
f 81/81/67 61/61/28 44/44/31 7/7/68
f 82/82/70 83/83/71 46/46/72 48/48/73
f 83/83/71 84/84/74 27/27/75 46/46/72
f 84/84/74 85/85/76 29/29/77 27/27/75
f 86/86/78 17/17/79 18/18/80 87/87/81
f 88/88/82 51/51/8 26/26/11 28/28/83
f 89/89/84 15/15/85 17/17/79 86/86/78
f 63/63/32 32/32/35 29/29/77 85/85/76
f 50/50/5 90/90/86 2/2/87 1/1/6
f 91/91/88 88/88/82 28/28/83 30/30/89
f 67/67/41 91/91/88 30/30/89 31/31/38
f 92/92/90 82/82/70 48/48/73 47/47/91
f 65/65/36 70/70/47 39/39/46 37/37/37
f 89/89/84 72/72/51 13/13/50 15/15/85
f 93/93/92 87/87/81 18/18/80 20/20/93
f 38/38/26 60/60/27 78/78/63 36/36/62
f 90/90/86 75/75/56 3/3/59 2/2/87
f 71/71/48 94/94/94 10/10/95 12/12/49
f 94/94/94 80/80/66 9/9/69 10/10/95
f 68/68/42 49/49/4 4/4/7 6/6/43
f 56/56/17 93/93/92 20/20/93 22/22/18
f 95/95/96 92/92/90 47/47/91 45/45/97
f 24/24/98 21/21/20 57/57/21 96/96/99
f 96/96/99 95/95/96 45/45/97 24/24/98
